<?xml version="1.0" standalone="no"?>
<!DOCTYPE svg PUBLIC "-//W3C//DTD SVG 20010904//EN"
 "http://www.w3.org/TR/2001/REC-SVG-20010904/DTD/svg10.dtd">
<svg version="1.0" xmlns="http://www.w3.org/2000/svg"
 width="2048.000000pt" height="2048.000000pt" viewBox="0 0 2048.000000 2048.000000"
 preserveAspectRatio="xMidYMid meet">

<g transform="translate(0.000000,2048.000000) scale(0.100000,-0.100000)"
fill="#000000" stroke="none">
<path d="M8596 17635 c-32 -9 -79 -22 -103 -30 -24 -8 -117 -24 -206 -36 -95
-12 -189 -30 -227 -43 -36 -13 -135 -48 -220 -78 -85 -31 -175 -64 -200 -74
-75 -30 -380 -193 -465 -248 -135 -89 -454 -343 -641 -513 -305 -275 -411
-394 -611 -688 -60 -88 -150 -218 -199 -290 -247 -360 -308 -467 -477 -840
-141 -312 -182 -391 -347 -675 -179 -307 -303 -548 -331 -642 -12 -40 -41
-119 -65 -174 -91 -213 -102 -315 -51 -472 25 -76 31 -85 84 -127 25 -20 34
-38 43 -81 15 -69 33 -116 71 -175 l29 -46 -39 -109 c-168 -464 -256 -730
-296 -894 -90 -379 -172 -1210 -145 -1475 22 -221 80 -506 137 -670 72 -209
157 -334 339 -498 l119 -108 -3 -43 c-5 -59 18 -83 94 -101 34 -8 149 -53 255
-101 107 -47 221 -94 254 -104 33 -9 126 -38 207 -64 82 -25 235 -64 340 -86
236 -48 379 -79 397 -85 11 -4 10 -9 -3 -28 -30 -41 -103 -191 -130 -265 -32
-89 -33 -151 -5 -209 26 -54 72 -92 174 -145 44 -22 93 -50 109 -61 32 -23 65
-88 66 -129 0 -33 10 -35 36 -7 46 50 61 51 169 5 55 -24 178 -74 273 -111
203 -80 192 -54 101 -242 -67 -139 -116 -262 -152 -378 -30 -97 -85 -232 -140
-340 -22 -44 -74 -154 -117 -245 -42 -91 -98 -196 -123 -235 -26 -38 -71 -105
-100 -147 -28 -42 -78 -116 -109 -165 -74 -115 -173 -216 -235 -239 -27 -10
-59 -25 -73 -35 -124 -84 -317 -56 -427 62 -54 59 -194 331 -179 347 3 3 61
13 128 23 220 34 323 70 404 141 34 30 184 225 261 338 72 107 160 319 224
543 121 424 127 442 158 450 9 2 25 21 35 41 16 33 16 38 1 70 -34 70 -118 73
-179 5 -48 -53 -74 -114 -141 -332 -139 -452 -207 -604 -347 -787 -62 -79 -86
-102 -153 -142 -201 -122 -285 -145 -555 -155 -137 -5 -565 18 -607 32 -7 2
-13 11 -13 19 0 30 -72 232 -114 322 -118 249 -283 420 -467 485 -91 32 -228
32 -322 0 -391 -133 -668 -730 -671 -1441 0 -210 12 -337 51 -525 108 -520
376 -879 693 -926 307 -47 611 218 775 673 l27 77 102 -5 c101 -5 381 -28 531
-43 110 -12 234 -6 480 24 116 14 249 30 297 35 196 23 362 103 490 237 119
126 170 220 581 1068 168 348 169 348 252 565 128 332 200 488 239 514 14 9
26 23 26 31 0 8 3 15 6 15 4 0 97 -28 208 -61 545 -167 665 -191 777 -157 73
21 156 113 222 244 60 118 127 302 127 348 l0 45 113 -40 c187 -68 221 -78
522 -154 160 -40 345 -93 412 -118 67 -26 171 -60 230 -77 59 -17 189 -58 288
-90 99 -32 214 -68 255 -80 41 -12 133 -39 203 -61 173 -54 314 -90 360 -91
45 0 83 29 92 73 4 16 10 29 15 29 4 0 33 -11 64 -25 163 -72 419 -141 631
-171 142 -20 447 -22 575 -5 244 33 452 86 649 166 1186 476 2079 1807 2316
3448 53 368 72 796 52 1184 l-8 161 153 84 c194 105 252 159 325 303 30 60 62
143 79 205 26 101 28 117 32 388 4 317 -8 541 -37 682 -11 52 -25 154 -31 225
-43 514 -264 1016 -672 1527 -114 144 -239 249 -503 425 -355 237 -1196 634
-2220 1050 -88 35 -239 93 -335 128 -172 61 -248 86 -620 200 -102 32 -273 88
-380 125 -107 38 -276 96 -375 130 -336 115 -440 152 -665 237 -211 80 -569
201 -1225 415 -294 95 -287 94 -525 103 -82 3 -132 0 -174 -10z m305 -204 c56
-21 73 -32 192 -126 32 -25 69 -45 82 -45 34 0 85 46 85 77 0 29 -9 31 170
-34 69 -25 283 -98 475 -163 340 -115 406 -137 510 -178 91 -35 348 -130 465
-170 661 -231 861 -298 1135 -381 308 -93 547 -177 815 -286 761 -311 1151
-485 1630 -726 350 -176 493 -258 666 -381 162 -115 268 -210 351 -314 373
-470 583 -957 618 -1439 4 -49 18 -148 31 -219 18 -99 27 -194 36 -417 16
-404 -2 -561 -86 -727 l-34 -66 -7 74 c-33 354 -99 672 -205 990 -15 47 -33
96 -38 110 -6 14 -27 68 -47 120 -50 127 -187 411 -260 535 -416 711 -1025
1263 -1725 1563 -712 305 -1483 345 -2195 115 -204 -66 -398 -149 -560 -241
-751 -425 -1296 -1102 -1595 -1979 -33 -97 -67 -181 -75 -186 -29 -16 -193
-20 -287 -8 -51 7 -141 23 -200 36 -58 13 -163 33 -232 44 -201 33 -354 70
-586 141 -100 31 -638 181 -825 231 -60 16 -243 56 -405 89 -470 96 -682 159
-1017 301 -110 46 -193 94 -290 166 -183 135 -232 189 -259 285 l-16 55 62
124 c35 68 101 210 147 314 159 359 187 407 547 935 329 484 367 528 786 904
85 77 382 311 480 378 156 108 453 262 600 311 41 14 129 46 195 70 95 36 147
49 250 62 166 21 216 31 290 54 91 30 94 30 185 27 56 -3 104 -11 141 -25z
m4009 -2195 c351 -56 619 -142 930 -297 488 -244 915 -614 1253 -1084 317
-440 548 -983 656 -1535 36 -188 71 -483 71 -606 0 -48 -2 -51 -36 -68 -20 -9
-37 -16 -38 -14 -2 2 -10 57 -20 123 -55 383 -170 826 -304 1165 -71 183 -203
466 -271 585 -555 968 -1359 1558 -2259 1655 -155 17 -491 7 -637 -19 -578
-101 -1098 -384 -1560 -846 -206 -207 -376 -423 -571 -725 -102 -158 -143
-233 -243 -447 -197 -420 -334 -840 -426 -1310 -4 -18 -11 -33 -17 -33 -25 0
6 485 46 712 72 405 173 706 363 1081 338 664 895 1192 1549 1467 261 110 516
175 844 214 91 11 569 -2 670 -18z m-645 -1586 c344 -33 645 -165 938 -410 53
-45 97 -85 97 -89 0 -4 -30 -18 -67 -31 -37 -13 -96 -43 -131 -67 -50 -33 -74
-43 -106 -43 -22 0 -50 -7 -60 -15 -29 -22 -33 -20 -70 38 -85 133 -90 149
-96 305 l-5 144 -30 24 c-17 13 -42 24 -57 24 -55 0 -76 -19 -124 -118 -42
-85 -60 -108 -154 -202 -121 -120 -148 -170 -137 -261 6 -47 5 -49 -21 -55
-198 -44 -327 -242 -252 -388 l19 -39 -31 -35 c-17 -20 -41 -60 -54 -89 -13
-30 -41 -68 -61 -86 -21 -18 -45 -39 -54 -48 -9 -9 -45 -36 -80 -59 -35 -24
-92 -65 -125 -92 -34 -26 -67 -48 -73 -48 -20 0 -126 -76 -249 -179 -64 -53
-181 -149 -258 -212 -78 -63 -195 -165 -260 -226 -174 -162 -285 -256 -411
-350 -62 -45 -117 -92 -123 -103 -6 -12 -15 -45 -20 -75 -11 -67 0 -104 48
-164 22 -27 39 -61 44 -90 16 -87 27 -256 27 -410 1 -166 19 -375 53 -591 11
-74 24 -168 28 -207 5 -46 16 -83 29 -101 19 -27 19 -30 3 -46 -16 -16 -16
-18 3 -33 35 -27 107 -55 200 -79 50 -12 133 -34 186 -48 179 -49 256 -55 759
-66 643 -13 1081 -28 1165 -39 212 -28 523 -38 825 -25 157 6 173 6 167 -9
-12 -31 -132 -219 -189 -294 -309 -414 -696 -675 -1133 -764 -142 -29 -373
-32 -515 -6 -352 64 -656 231 -940 516 -481 482 -780 1202 -851 2046 -15 181
-6 628 15 793 66 498 201 934 402 1295 364 654 892 1050 1477 1106 117 12 140
12 252 1z m1443 -144 c94 -48 108 -192 27 -273 -32 -32 -35 -33 -117 -33 -97
0 -115 9 -159 78 -53 84 -29 176 60 226 39 23 55 26 102 23 31 -3 70 -12 87
-21z m-1098 -355 c0 -34 89 -196 141 -257 28 -33 65 -78 82 -102 20 -28 63
-63 121 -99 101 -62 115 -76 152 -150 21 -42 25 -61 19 -90 -17 -95 -96 -199
-183 -244 -37 -19 -63 -24 -122 -24 -80 0 -100 -7 -119 -42 -15 -30 -4 -69 26
-93 28 -22 119 -27 203 -10 25 4 48 6 52 4 4 -3 -5 -27 -19 -55 -39 -78 -69
-88 -311 -101 -259 -13 -436 -8 -479 15 -131 69 -200 236 -143 346 24 49 64
81 100 81 15 0 48 -12 74 -26 47 -26 167 -43 218 -31 60 15 89 85 49 121 -11
10 -53 22 -104 29 -90 14 -143 41 -193 100 -35 42 -41 75 -18 116 27 49 92 81
163 81 83 0 128 16 146 50 21 40 19 77 -6 112 -12 16 -24 50 -27 74 -5 44 -4
44 78 129 46 47 87 85 92 85 4 0 8 -9 8 -19z m1433 -67 c22 -16 63 -59 92 -96
123 -162 222 -370 331 -696 56 -167 144 -481 144 -514 0 -6 -16 6 -36 26 -30
31 -38 50 -54 124 -22 109 -44 154 -113 229 -70 75 -76 89 -92 189 -25 152
-76 233 -189 299 -26 15 -51 35 -56 45 -5 9 -16 64 -25 121 -17 118 -53 204
-107 261 -19 21 -32 40 -29 44 14 14 96 -6 134 -32z m-342 -94 c53 -15 100
-50 120 -90 10 -19 25 -82 33 -140 21 -139 52 -201 126 -252 113 -78 118 -83
130 -145 41 -208 48 -225 135 -321 70 -78 69 -75 89 -185 16 -84 37 -125 85
-171 32 -31 52 -81 72 -181 6 -33 19 -82 29 -110 10 -27 21 -62 24 -77 7 -32
-49 -325 -67 -346 -6 -8 -28 -25 -49 -38 -61 -39 -106 -91 -125 -144 -10 -27
-20 -50 -23 -50 -4 0 -21 15 -39 34 l-33 34 18 33 c10 20 19 65 22 110 6 96
-14 161 -68 222 -31 35 -41 56 -49 103 -5 32 -23 93 -39 134 -18 45 -35 110
-41 164 -14 119 -50 193 -135 284 l-67 71 10 57 c45 240 -44 381 -267 424 -55
11 -61 15 -57 34 20 90 25 117 25 162 0 99 -54 213 -151 319 l-41 45 27 10
c15 6 48 13 73 16 26 3 49 8 52 11 7 8 139 -4 181 -17z m-439 -177 c38 -41 87
-123 98 -165 7 -25 7 -52 -1 -85 -51 -224 -11 -302 176 -341 115 -24 135 -42
135 -118 0 -30 -5 -86 -11 -124 -16 -103 -3 -138 86 -230 90 -93 102 -117 114
-222 6 -49 24 -123 45 -182 20 -54 36 -114 36 -133 0 -48 25 -102 69 -148 21
-22 41 -52 44 -66 6 -22 -8 -99 -17 -99 -2 0 -29 11 -60 25 -32 14 -105 32
-166 42 -98 15 -135 15 -373 3 -262 -13 -355 -12 -857 11 -129 6 -431 12 -670
14 -267 2 -529 9 -679 20 -201 14 -274 15 -419 6 -96 -6 -177 -10 -179 -8 -2
2 32 33 75 69 43 36 141 121 218 189 135 120 325 278 558 464 62 50 145 116
184 148 73 59 200 143 206 136 2 -2 10 -25 19 -51 33 -99 127 -179 262 -221
65 -20 88 -22 325 -21 211 0 266 4 320 18 36 10 97 25 135 33 89 19 123 42
174 120 47 73 59 129 42 198 l-12 47 49 60 c70 85 107 181 107 278 0 68 -4 84
-37 152 -23 46 -58 95 -88 125 -39 38 -48 53 -38 60 41 32 98 30 130 -4z
m1428 -2513 c-38 -756 -162 -1204 -478 -1733 -123 -204 -202 -291 -284 -308
-73 -16 -160 43 -172 117 -10 58 18 124 116 279 46 72 107 176 137 232 41 78
60 103 79 108 61 15 173 77 202 113 55 66 68 136 87 452 9 157 18 420 19 585
3 233 7 310 18 345 8 25 29 91 46 147 l31 102 56 37 c64 43 106 97 131 166
l17 49 3 -233 c2 -128 -2 -334 -8 -458z m-8470 609 c307 -43 893 -168 1305
-278 412 -110 492 -130 690 -171 110 -23 202 -43 206 -45 3 -3 82 -21 175 -40
187 -39 250 -57 434 -120 178 -61 177 -61 262 -86 l77 -22 5 -41 c42 -345 83
-570 152 -836 159 -615 422 -1175 761 -1623 225 -297 521 -582 790 -760 50
-34 90 -64 87 -68 -2 -4 -25 0 -51 8 -27 8 -115 35 -198 59 -247 73 -539 172
-720 244 -202 81 -331 126 -480 169 -243 69 -646 187 -1000 292 -55 17 -152
45 -215 63 -63 19 -236 73 -385 121 -328 106 -355 114 -525 160 -74 20 -184
50 -245 66 -60 17 -137 39 -170 50 -33 10 -125 35 -205 55 -80 20 -246 62
-370 95 -219 57 -356 89 -625 144 -71 14 -172 38 -223 52 l-92 26 -50 71 c-28
39 -95 135 -150 213 -125 178 -186 281 -271 458 -182 382 -242 594 -242 865
-1 164 14 251 65 377 83 207 186 304 455 429 222 103 408 121 753 73z m5630
-189 c-110 -9 -785 -21 -755 -14 53 12 278 21 550 21 208 0 271 -2 205 -7z
m-7070 -1240 c0 -5 -2 -10 -4 -10 -3 0 -8 5 -11 10 -3 6 -1 10 4 10 6 0 11 -4
11 -10z m238 -736 c-4 -3 -16 1 -28 9 -15 11 -18 16 -8 20 15 5 45 -19 36 -29z
m-798 -2909 c24 -14 24 -14 4 -15 -12 0 -35 7 -50 15 -29 15 -29 15 -4 15 14
-1 36 -7 50 -15z m-150 -1475 c12 0 11 -3 -3 -17 -16 -16 -18 -16 -40 6 l-22
24 25 -7 c14 -3 32 -6 40 -6z"/>
<path d="M10230 10333 c0 -28 3 -34 10 -23 13 20 13 47 0 55 -6 4 -10 -9 -10
-32z"/>
</g>
</svg>
